# xmcd
#
# Track frame offsets: 
#        150
#        17248
#        34702
#        51794
#        68924
#        91939
#        115000
#        134916
#        151920
#        175435
#
# Disc length: 2658 seconds
#
# Revision: 5
# Processed by: cddbd v1.5.2PL0 Copyright (c) Steve Scherf et al.
# Submitted via: ExactAudioCopy v0.99pb5
#
DISCID=850a600a
DTITLE=Özlem Tekin - 109876543210
DYEAR=2005
DGENRE=Rock
TTITLE0=Değmez
TTITLE1=Gezegen X
TTITLE2=Cinayet
TTITLE3=Belki
TTITLE4=Dene
TTITLE5=Kaf Dağı
TTITLE6=Aşk Yangın
TTITLE7=A) Şık
TTITLE8=Aşinayım Firara
TTITLE9=Adımı Söyle
EXTD=Year: 2005
EXTT0=
EXTT1=
EXTT2=
EXTT3=
EXTT4=
EXTT5=
EXTT6=
EXTT7=
EXTT8=
EXTT9=
PLAYORDER=
